#N canvas 0 22 278 316 10;
#X obj 48 33 inlet;
#X obj 48 235 outlet;
#X msg 70 91 64;
#X obj 70 113 /;
#X obj 110 93 samplerate~;
#X obj 70 135 * 1000;
#X obj 48 59 t f b b;
#X obj 48 161 /;
#X obj 48 183 + 0.5;
#X obj 48 205 i;
#X connect 0 0 6 0;
#X connect 2 0 3 0;
#X connect 3 0 5 0;
#X connect 4 0 3 1;
#X connect 5 0 7 1;
#X connect 6 0 7 0;
#X connect 6 1 2 0;
#X connect 6 2 4 0;
#X connect 7 0 8 0;
#X connect 8 0 9 0;
#X connect 9 0 1 0;
