#N canvas 745 172 643 328 10;
#X obj 41 182 *~;
#X obj 101 202 line~;
#X msg 151 155 0 100;
#X msg 101 155 1 100;
#X obj 151 129 delay;
#X obj 211 205 - 100;
#X obj 71 114 t b b;
#X obj 211 131 t f b;
#X obj 211 183 /;
#X obj 241 153 samplerate~;
#X obj 241 175 / 1000;
#X text 351 25 \$1: writer-abs instance number;
#X text 351 45 \$2: dollar-zero value of parent patch;
#X obj 41 20 r~ \$2-streamstretch-input-sig;
#X obj 71 48 r \$2-streamstretch-current-write-buf;
#X obj 71 70 select \$1;
#X obj 211 109 r \$2-streamstretch-buf-len-samps;
#X obj 41 254 tabwrite~ \$2-streamstretch-buf-\$1;
#X floatatom 158 78 5 0 0 0 - - -, f 5;
#X obj 5 130 bng 15 250 50 0 empty empty empty 17 7 0 10 -262144 -1
-1;
#X floatatom 292 254 5 0 0 0 - - -, f 5;
#X obj 239 71 bng 15 250 50 0 empty empty empty 17 7 0 10 -262144 -1
-1;
#X connect 0 0 17 0;
#X connect 1 0 0 1;
#X connect 2 0 1 0;
#X connect 3 0 1 0;
#X connect 4 0 2 0;
#X connect 5 0 4 1;
#X connect 5 0 20 0;
#X connect 6 0 3 0;
#X connect 6 1 17 0;
#X connect 7 0 8 0;
#X connect 7 1 9 0;
#X connect 8 0 5 0;
#X connect 9 0 10 0;
#X connect 10 0 8 1;
#X connect 13 0 0 0;
#X connect 14 0 15 0;
#X connect 14 0 18 0;
#X connect 15 0 4 0;
#X connect 15 0 6 0;
#X connect 15 0 19 0;
#X connect 16 0 7 0;
#X connect 21 0 8 0;
